{"title":"The.Book.of.Eli.2010.1080p.BluRay.x264-LTT","uid":5588719,"size":6269213897,"categoryP":"video","categoryS":"hd___movies","magnet":"?xt=urn:btih:4f7c64ad0c91456d02889d0cf0e4cf149ba3997a&amp;dn=The.Book.of.Eli.2010.1080p.BluRay.x264-LTT&amp;tr=udp%3A%2F%2Ftracker.openbittorrent.com%3A80&amp;tr=udp%3A%2F%2Fopen.demonii.com%3A1337&amp;tr=udp%3A%2F%2Ftracker.coppersurfer.tk%3A6969&amp;tr=udp%3A%2F%2Fexodus.desync.com%3A6969","seeders":0,"leechers":0,"uploader":"Ltt_01","files":2,"time":1274792521,"description":"The.Book.of.Eli.2010.1080p.BluRay.mkv\n*************************************\n\nTiTLE......  The Book of Eli\nYEAR.......  2010\nGENRE......  Action | Adventure | Drama | Thriller | Western\niMDB RATE..  User Rating: 7.0/10 (23,148 votes)\niMDB URL... &lt;a href=&quot; http://www.imdb.com/title/tt1037705/&quot; rel=&quot;nofollow&quot; target=&quot;_NEW&quot;&gt; http://www.imdb.com/title/tt1037705/&lt;/a&gt;\n*************************************************\n\nVideo\nDuration                         : 1h 57mn\nOverall bit rate                 : 7 108 Kbps\nWidth                            : 1 920 pixels\nHeight                           : 816 pixels\nDisplay aspect ratio             : 2.35:1\nFrame rate                       : 23.976 fps\nStream size                      : 5.19 GiB (89%)\n\nAudio\nFormat                           : AC-3 Dolby Digital 5.1\nBit rate                         : 640 Kbps\nChannel(s)                       : 6 channels\nChannel positions                : Front: L C R, Surround: L R, LFE\nSampling rate                    : 48.0 KHz\nStream size                      : 538 MiB (9%)\nLanguage                         : English\n\nSubtitles: English, French\n**************************\n\n\n","torrent":{"xt":"urn:btih:4f7c64ad0c91456d02889d0cf0e4cf149ba3997a","amp;dn":"The.Book.of.Eli.2010.1080p.BluRay.x264-LTT","amp;tr":["udp%3A%2F%2Ftracker.openbittorrent.com%3A80","udp%3A%2F%2Fopen.demonii.com%3A1337","udp%3A%2F%2Ftracker.coppersurfer.tk%3A6969","udp%3A%2F%2Fexodus.desync.com%3A6969"],"infoHash":"4f7c64ad0c91456d02889d0cf0e4cf149ba3997a","infoHashBuffer":{"type":"Buffer","data":[79,124,100,173,12,145,69,109,2,136,157,12,240,228,207,20,155,163,153,122]},"announce":[],"urlList":[]}}